<svg xmlns="http://www.w3.org/2000/svg" viewBox="0 0 749.5 186.5"><defs><style>.cls-1{fill:#008aeb;}.cls-2{fill:#eeeeef;}</style></defs><title>资源 14内容</title><g id="图层_2" data-name="图层 2"><g id="图层_1-2" data-name="图层 1"><path class="cls-1" d="M749.5,0H93.4C42,0,0,42,0,93.2H0c0,51.3,42,93.3,93.4,93.3H749.5Z"/><path class="cls-2" d="M122.2,83.2,91.9,56.8h-.3l-.3-.2-.3-.2H87c0,.1-.1.1-.2.1s-.2.1-.2.2l-.3.2h-.4L55.7,83.2a4.5,4.5,0,0,0-.4,6.4,4.3,4.3,0,0,0,3.4,1.6,5,5,0,0,0,3-1.1L84.4,70.3v55.9a4.6,4.6,0,0,0,4.5,4.6,4.7,4.7,0,0,0,4.6-4.6V70.3l22.7,19.8a4.6,4.6,0,0,0,3,1.1,4.4,4.4,0,0,0,3.4-1.6A4.5,4.5,0,0,0,122.2,83.2Z"/><path class="cls-2" d="M202.4,53.9c6.1,0,9.1.4,9.1,1.1s-.5,1-.7,1.4a8.8,8.8,0,0,0-1.1,6.1V73.8a46.3,46.3,0,0,0,10.2-.3,1,1,0,0,0,.8-.4v7.1h-4.1a45,45,0,0,0-6.9-.3v49c.2,2.6.4,4.4.4,5.6h-7.7v-3.9c.4-4.2.7-7.4.7-9.6V93.7a34,34,0,0,0-2.2,4.3,112.5,112.5,0,0,1-9.2,18.1l-4.4-7.8c6.4-7.4,11.3-16.8,14.7-28.4a71.5,71.5,0,0,1-12.1.3V73.5l2.6.3h10.6V62.5a33.9,33.9,0,0,0-.7-7.1Zm13.1,36.6a73.8,73.8,0,0,1,7.7,11.4l-6.9,3.2a50.3,50.3,0,0,0-5.5-11.4ZM221.4,66c.5.5,4.3.6,11.4.4h26c7.3.2,12.1.1,14.3-.4v7.8h-5.2a84.3,84.3,0,0,0-9.1-.3H240.5c.7.4.9.6.7.3,4.6,1.7,6.7,2.7,6.2,3.2a2.3,2.3,0,0,1-1.1.7,6.4,6.4,0,0,0-2.9,2.2c-2.5,3.3-5.3,6.7-8.4,10.3h13.5a63.7,63.7,0,0,0,5.9-11.4c5.1,1.9,8,3.4,8.8,4.6a5.2,5.2,0,0,1-1.1.7,9.2,9.2,0,0,0-3.3,3.2c-7.1,12.6-18.3,23.4-33.7,32.7a66.5,66.5,0,0,0-7.7-5.7,80.6,80.6,0,0,0,27.8-19.2,2.7,2.7,0,0,1-1.4.4l-18,2.1L224,90.5c5.6-1.2,10.5-6.9,14.6-17-5.8,0-9.6.1-11.3.3h-5.9Zm41.4,28.1c5.4,2.3,8.2,3.9,8.4,4.6a4.5,4.5,0,0,1-1.1,1.4,9,9,0,0,0-3.6,3.5A73.4,73.4,0,0,1,258,115c4.9,4,9.4,7.9,13.6,11.7a5.4,5.4,0,0,1,1.8,1.1l-7.3,5c-4.4-5-8.6-9.5-12.5-13.5a131.4,131.4,0,0,1-28.5,15.9,19.4,19.4,0,0,0-7-6.3Q250.4,122.2,262.8,94.1Zm-15-40.2a33.9,33.9,0,0,1,3.6,10l-7.6,1a21.2,21.2,0,0,0-1.1-2.1,31.7,31.7,0,0,0-3-8.1Z"/><path class="cls-2" d="M304.2,110.7v6.8l-8.4,1.8L284,121.8l-1.4-8.2C287,113.4,294.2,112.4,304.2,110.7ZM310,97.3l6.3-.4a28.1,28.1,0,0,0-.4,5c-.7,17-1.8,26.4-3.3,28s-6.5,4.2-13.5,5.3a4.9,4.9,0,0,0-1.9.4,25.7,25.7,0,0,0-3.6-8.5c6.6.7,10.7.2,12.4-1.4s1.4-3.5,1.9-6.8.8-8.4,1-16l-22.3,1.8c.2-3.5.5-8.6.7-15.3s.4-12.3.4-15.6c5.9.3,8.9.7,9.2,1.4a2.2,2.2,0,0,1-.8,1.5,8.7,8.7,0,0,0-.7,3.5,8.1,8.1,0,0,0-.4,2.9c-.9,8-1.3,13.1-1.1,15.2h3.7l5.9-.3c.9-13.8,1.7-23.8,2.2-30.2-11.5.5-19.1.9-22.8,1.4V60.7c3.5.7,13.7.8,30.8.3C312.2,72.4,311,84.5,310,97.3Zm25-43.4c5.8,1,9.1,1.8,9.8,2.5a1.7,1.7,0,0,1-.7,1.4,2,2,0,0,0-.7,1.1c4.4,9.2,13,16.6,26,22a16.7,16.7,0,0,0-5.5,7.5c-13.7-7.1-21.6-15.9-23.8-26.3-3.9,8.5-11.3,18-22,28.4-2-1.6-4.1-3.3-6.6-5C323,78.2,330.8,67.7,335,53.9Zm15.7,40.5c6.1,1.2,9.4,2.3,9.9,3.2a3,3,0,0,1-1.1,1.8q-1.5,1.3-1.5,2.1c-.2.7-.5,1.6-.7,2.5-3.2,9.7-5.7,17.2-7.7,22.4h2.2a57.2,57.2,0,0,0,11.7-.4v6a67.6,67.6,0,0,0-11.7-.3H330.9c-6.8-.2-11.5-.1-13.9.3v-6.3l6.6.7h18.7A113.5,113.5,0,0,0,350.7,94.4Zm-24.5,2.1a154.6,154.6,0,0,1,5.8,23.1l-7.7,1.4c-.9-9.9-2.5-17.6-4.7-23Zm0-13.1,3.6.4h15.8l8.4-.4v6.8c-2.2-.3-6.2-.5-12.1-.8h-4.7c-5.2,0-8.8.2-11,.4Zm14.2,11.4a139.6,139.6,0,0,1,3,21.3l-7.7,1a103.3,103.3,0,0,0-2.9-21.3Z"/><path class="cls-2" d="M400.9,72.8a8.5,8.5,0,0,0,2.5,1.7c4,2.6,5.8,4.1,5.5,4.3-6.5,5.4-10.5,9.3-11.7,11.7v40.1a28.2,28.2,0,0,1,.4,4.3h-8.4c.2-4.3.5-9.1.7-14.6V98l-9.5,10.6a21.9,21.9,0,0,0-5.5-6.4A158,158,0,0,0,400.9,72.8Zm-3.7-19.2,6.6,5.7a240.6,240.6,0,0,1-23.4,23,27.4,27.4,0,0,0-5.2-6C385.3,68,392.6,60.5,397.2,53.6ZM461,83.1v8.1c-3.5-.2-8.5-.5-15.1-.7H443v37.3c.7,4.2-3.5,6.7-12.8,7.4a23.7,23.7,0,0,0-4-8.5c6.1.3,9.1-.4,9.1-2.1V90.5h-9.1c-7.6,0-12.9.2-15.8.7V83.1l8.4.7h26.8C451.7,83.8,456.8,83.5,461,83.1Zm-6.3-23.5v7.8h-8l-6.3-.3h-9.8c-7.1,0-12.3.1-15.4.3V59.6c1.9.3,4.5.5,7.7.7h25.6A51.7,51.7,0,0,0,454.7,59.6Z"/><path class="cls-2" d="M501.2,55c3.7,4,5.4,6.3,5.2,6.8a3.8,3.8,0,0,1-1.9.3,6.6,6.6,0,0,0-2.5.4l-2.6.7a44.5,44.5,0,0,0-5.1.7V78.8h1.5a36.8,36.8,0,0,0,9.5-.4v6.8c-2.2-.2-5.5-.4-9.9-.4h-1.1v10l4-2.5c2.5,3.1,5,6.5,7.7,10.3l-6.6,3.2a42.9,42.9,0,0,0-5.1-9.3v27.4c-.3,5-.1,8.3.4,9.9h-8.1c.2-2.6.5-5.9.7-9.9V97.3a112.5,112.5,0,0,1-11.7,21.3c-2-2.9-3.7-5.2-5.1-7.1q7.3-5.7,16.8-26.7h-4.7a83.9,83.9,0,0,0-9.6.4V78.4c1.7.5,4.9.6,9.6.4h4.7V65.3c-6.1,1.4-9.9,2.1-11.3,2.1l-3.3-6A91.3,91.3,0,0,0,501.2,55Zm6.3,35.5c1.2.2,3.3.5,6.2.7h23.1c3.1,0,7.7-.2,13.5-.7v7.8l-13.5-.7h-4.4v10h4c2.9,0,7.2-.3,12.8-.8v7.1h-8.4l-4-.3h-4.4v11.3H539c.5.3,2.4.3,5.8,0,4.9-.4,8.1-.7,9.6-.7V131a59.5,59.5,0,0,0-7-.7H510a58,58,0,0,0-6.6.7v-6.8a58,58,0,0,0,6.6.7h15.1V113.6H521c-6.3,0-10.6.1-12.8.3v-7.1a56.6,56.6,0,0,0,5.9.8h11v-10H521l-13.5.7ZM510,58.2c1.5.7,4.1,1.1,7.7,1.1h23.1a35.9,35.9,0,0,0,8.4-1.1,28.8,28.8,0,0,0-.7,7.1V77.7a25.8,25.8,0,0,0,.7,7.1l-4.7-.3a17.7,17.7,0,0,0-3.3-.4H517.7l-7.7.7c.3-1.9.5-4.2.8-7.1V64.9C510.5,63.3,510.3,61,510,58.2Zm8.1,19.5h22.7V65.3H518.1Z"/><path class="cls-2" d="M600.5,52.9a41.7,41.7,0,0,1,5.9.3h3.3c1.4.5,1.7,1.5.7,2.9a8,8,0,0,0-1.5,3.9v7.1h18c5.6.2,9.3,0,11-.7v8.1a66.9,66.9,0,0,0-11-.7H609.3V87.3h28.6a31.8,31.8,0,0,0,10.2-.7v8.5a57.8,57.8,0,0,0-9.9-.7H609.3v10l3.3-4.7A162,162,0,0,1,636,115.4l-6.6,7.1c-3.9-3.6-10.6-8.3-20.1-14.2v16.3c-.2,5.2,0,8.9.7,11h-9.9c.5-1.7.8-5.3.8-11V94.4H576.7a75.7,75.7,0,0,0-11.4.7V86.6c2.2.7,6.3,1,12.1.7h23.5V61c0-2.8-.2-5.3-.4-7.4Z"/></g></g></svg>